{
	"asset":{
		"generator":"Khronos glTF Blender I/O v4.0.44",
		"version":"2.0"
	},
	"scene":0,
	"scenes":[
		{
			"name":"Scene",
			"nodes":[
				50
			]
		}
	],
	"nodes":[
		{
			"name":"brow r",
			"rotation":[
				-0.0005085219163447618,
				-0.00034983435762114823,
				0.72958904504776,
				0.6838855743408203
			],
			"scale":[
				0.9999998211860657,
				0.9999998807907104,
				1
			],
			"translation":[
				-0.1431668996810913,
				1.6713042259216309,
				1.7352871894836426
			]
		},
		{
			"name":"brow l",
			"rotation":[
				0.00042016131919808686,
				-0.0002932158822659403,
				-0.7261085510253906,
				0.6875799298286438
			],
			"scale":[
				0.9999998211860657,
				0.9999998807907104,
				0.9999999403953552
			],
			"translation":[
				0.034032613039016724,
				1.6813654899597168,
				1.7308557033538818
			]
		},
		{
			"name":"eye r",
			"rotation":[
				-1.7899274951105326e-07,
				-2.63569148728493e-07,
				0.006065481808036566,
				0.9999816417694092
			],
			"scale":[
				0.9999999403953552,
				0.9999998807907104,
				0.9999999403953552
			],
			"translation":[
				-0.4674959182739258,
				1.1824746131896973,
				1.7325811386108398
			]
		},
		{
			"name":"blink",
			"rotation":[
				-0.5130667686462402,
				-0.5101202130317688,
				-0.48113444447517395,
				0.49502483010292053
			],
			"scale":[
				1.0000001192092896,
				1,
				1
			],
			"translation":[
				0.00442514568567276,
				0.11073806881904602,
				-0.00510895811021328
			]
		},
		{
			"children":[
				3
			],
			"name":"eye l",
			"rotation":[
				-1.8025811243660428e-07,
				-5.541471281844679e-08,
				0.006065481808036566,
				0.9999816417694092
			],
			"scale":[
				0.9999999403953552,
				0.9999998807907104,
				1
			],
			"translation":[
				0.43382155895233154,
				1.1717925071716309,
				1.7338032722473145
			]
		},
		{
			"name":"mou r",
			"rotation":[
				7.081752406712383e-10,
				-5.2624411495116874e-08,
				0.013340306468307972,
				0.9999110102653503
			],
			"scale":[
				1,
				0.9999998807907104,
				1
			],
			"translation":[
				-0.5112442970275879,
				0.21553754806518555,
				1.732495903968811
			]
		},
		{
			"name":"mou l",
			"rotation":[
				-6.387804174501355e-10,
				4.9364494714154716e-08,
				0.013340354897081852,
				0.9999110102653503
			],
			"scale":[
				0.9999999403953552,
				0.9999998807907104,
				1
			],
			"translation":[
				0.45955491065979004,
				0.2145223617553711,
				1.7332489490509033
			]
		},
		{
			"name":"moustache l",
			"rotation":[
				0.01328898873180151,
				0.00022002433252055198,
				-0.7854794859886169,
				0.6187450885772705
			],
			"scale":[
				0.9999998211860657,
				0.9999999403953552,
				1
			],
			"translation":[
				-0.029353857040405273,
				0.3781094551086426,
				1.725367546081543
			]
		},
		{
			"name":"moustache r",
			"rotation":[
				-0.014254428446292877,
				0.0016808061627671123,
				0.7767719030380249,
				0.6296185255050659
			],
			"scale":[
				0.9999999403953552,
				1,
				1
			],
			"translation":[
				-0.01990675926208496,
				0.3635411262512207,
				1.7255198955535889
			]
		},
		{
			"name":"teeth",
			"rotation":[
				-0.010223610326647758,
				0.7150026559829712,
				0.6989703178405762,
				0.010352819226682186
			],
			"scale":[
				0.9999999403953552,
				1.000000238418579,
				0.9999999403953552
			],
			"translation":[
				-0.013139843940734863,
				0.1732163429260254,
				1.2248475551605225
			]
		},
		{
			"children":[
				0,
				1,
				2,
				4,
				5,
				6,
				7,
				8,
				9
			],
			"name":"head",
			"scale":[
				1,
				0.9999999403953552,
				1
			],
			"translation":[
				-4.470348358154297e-08,
				0.5188708305358887,
				5.960464477539063e-08
			]
		},
		{
			"children":[
				10
			],
			"name":"neck",
			"rotation":[
				0,
				-1.2014061212539673e-07,
				0,
				1
			],
			"translation":[
				-2.5331974029541016e-07,
				1.200960636138916,
				2.682209014892578e-07
			]
		},
		{
			"name":"thumb l 2",
			"rotation":[
				4.962203536962306e-09,
				-4.172761691734195e-08,
				-3.350323822814971e-07,
				1
			],
			"scale":[
				1,
				0.9999999403953552,
				0.9999999403953552
			],
			"translation":[
				0.21513386070728302,
				0.12241917848587036,
				0.00016893306747078896
			]
		},
		{
			"children":[
				12
			],
			"name":"thumb l 1",
			"rotation":[
				0.000457581365481019,
				0.00011820131476270035,
				-0.9058603644371033,
				0.42357608675956726
			],
			"scale":[
				1,
				1.0000001192092896,
				1.0000001192092896
			],
			"translation":[
				-0.07431545853614807,
				-0.23886387050151825,
				-1.6273465007543564e-05
			]
		},
		{
			"name":"point l 2",
			"rotation":[
				-1.1204974725842476e-09,
				2.3174925445346162e-07,
				5.551498816203093e-07,
				1
			],
			"scale":[
				1,
				1.0000001192092896,
				1
			],
			"translation":[
				0.22384339570999146,
				0.009028174914419651,
				9.714160114526749e-06
			]
		},
		{
			"children":[
				14
			],
			"name":"point l 1",
			"rotation":[
				0.0001317406422458589,
				-9.93736830423586e-06,
				-0.9942349791526794,
				0.10722333192825317
			],
			"scale":[
				1.0000046491622925,
				1.0000001192092896,
				1
			],
			"translation":[
				-0.7801298499107361,
				-0.18086403608322144,
				-0.00017674220725893974
			]
		},
		{
			"name":"fingers l 2",
			"rotation":[
				-4.656612873077393e-10,
				5.723268614588051e-08,
				4.3215828782194876e-07,
				1
			],
			"scale":[
				0.9999999403953552,
				0.9999999403953552,
				1
			],
			"translation":[
				-0.2238427847623825,
				0.009027816355228424,
				-4.140613600611687e-05
			]
		},
		{
			"children":[
				16
			],
			"name":"fingers l 1",
			"rotation":[
				-3.6794604056922253e-06,
				-2.3335600417340174e-05,
				0.018784599378705025,
				0.9998235702514648
			],
			"scale":[
				1,
				1,
				1.0000001192092896
			],
			"translation":[
				-0.793674111366272,
				0.2811213433742523,
				-0.00017903512343764305
			]
		},
		{
			"children":[
				13,
				15,
				17
			],
			"name":"arm l 3",
			"rotation":[
				-0.00011257674486842006,
				1.0270864549966063e-05,
				0.9957772493362427,
				0.09180249273777008
			],
			"scale":[
				1.0000026226043701,
				1.0000001192092896,
				1
			],
			"translation":[
				1.0075523853302002,
				-0.3192310929298401,
				-1.3401731848716736e-06
			]
		},
		{
			"children":[
				18
			],
			"name":"arm l 2",
			"rotation":[
				0.0006145074730738997,
				-1.4073384591029026e-07,
				-0.03812038153409958,
				0.9992730021476746
			],
			"scale":[
				1,
				1,
				0.9999999403953552
			],
			"translation":[
				1.785912036895752,
				-0.3959159851074219,
				0.00696854293346405
			]
		},
		{
			"name":"arm l 2.1",
			"rotation":[
				3.932237814296968e-05,
				-0.0006154097500257194,
				0.999851405620575,
				0.017230821773409843
			],
			"scale":[
				0.9999886751174927,
				0.9999999403953552,
				0.9999999403953552
			],
			"translation":[
				1.591773271560669,
				-0.998100757598877,
				0.006219998002052307
			]
		},
		{
			"children":[
				19,
				20
			],
			"name":"arm l 1",
			"rotation":[
				0,
				-1.2014061212539673e-07,
				0,
				1
			],
			"translation":[
				1.353661060333252,
				0.7069668769836426,
				8.642673492431641e-07
			]
		},
		{
			"name":"thumb r 2",
			"rotation":[
				2.3137545213103294e-09,
				-1.2368401769435877e-07,
				-5.22293703397736e-07,
				1
			],
			"scale":[
				0.9999999403953552,
				1,
				0.9999998807907104
			],
			"translation":[
				-0.215135395526886,
				0.12241916358470917,
				-0.00017760368064045906
			]
		},
		{
			"children":[
				22
			],
			"name":"thumb r 1",
			"rotation":[
				-0.00048009288730099797,
				0.00012388864706736058,
				0.9058607220649719,
				0.42357540130615234
			],
			"scale":[
				0.9999999403953552,
				1,
				0.9999998807907104
			],
			"translation":[
				0.07431599497795105,
				-0.2388627678155899,
				1.7568934708833694e-05
			]
		},
		{
			"name":"point r 2",
			"rotation":[
				8.818461516568732e-09,
				3.82749959726425e-07,
				8.858251021592878e-08,
				1
			],
			"scale":[
				1,
				0.9999999403953552,
				0.9999999403953552
			],
			"translation":[
				-0.22383956611156464,
				0.009028403088450432,
				-9.244773536920547e-06
			]
		},
		{
			"children":[
				24
			],
			"name":"point r 1",
			"rotation":[
				-0.00013754713290836662,
				-1.0746319276222493e-05,
				0.9942348599433899,
				0.10722410678863525
			],
			"scale":[
				1.000002384185791,
				1,
				0.9999999403953552
			],
			"translation":[
				0.7801288366317749,
				-0.1808636635541916,
				0.00018382491543889046
			]
		},
		{
			"name":"fingers r 2",
			"rotation":[
				-9.487848728895187e-09,
				-8.843198884278536e-08,
				-8.905317372409627e-07,
				1
			],
			"scale":[
				1,
				1,
				0.9999999403953552
			],
			"translation":[
				0.22384454309940338,
				0.009027346968650818,
				4.2090658098459244e-05
			]
		},
		{
			"children":[
				26
			],
			"name":"fingers r 1",
			"rotation":[
				4.131784862693166e-06,
				-2.418357689748518e-05,
				-0.01878456212580204,
				0.9998235702514648
			],
			"scale":[
				0.9999998807907104,
				0.9999999403953552,
				1
			],
			"translation":[
				0.7936732769012451,
				0.28112196922302246,
				0.00018747244030237198
			]
		},
		{
			"children":[
				23,
				25,
				27
			],
			"name":"arm r 3",
			"rotation":[
				0.00011802611697930843,
				1.1028027984139044e-05,
				-0.9957771897315979,
				0.09180264174938202
			],
			"scale":[
				1.0000038146972656,
				1,
				0.9999998807907104
			],
			"translation":[
				-1.0075496435165405,
				-0.31923192739486694,
				3.8603320717811584e-07
			]
		},
		{
			"children":[
				28
			],
			"name":"arm r 2",
			"rotation":[
				-0.0006444386672228575,
				-7.316732819617755e-08,
				0.03997700661420822,
				0.9992004036903381
			],
			"scale":[
				1,
				0.9999998807907104,
				1
			],
			"translation":[
				-1.8220546245574951,
				-0.3913445472717285,
				-0.0075508058071136475
			]
		},
		{
			"name":"arm r 2.1",
			"rotation":[
				1.8838209143723361e-06,
				-0.0006435720133595169,
				-0.9984613656997681,
				0.05544915795326233
			],
			"scale":[
				1.0000067949295044,
				0.9999999403953552,
				0.9999999403953552
			],
			"translation":[
				-1.730438232421875,
				-0.9497675895690918,
				-0.006826579570770264
			]
		},
		{
			"children":[
				29,
				30
			],
			"name":"arm r 1",
			"rotation":[
				0,
				-1.210719347000122e-07,
				0,
				1
			],
			"scale":[
				1,
				0.9999999403953552,
				1
			],
			"translation":[
				-1.284536600112915,
				0.6562814712524414,
				-1.7881393432617188e-07
			]
		},
		{
			"children":[
				11,
				21,
				31
			],
			"name":"body 2",
			"rotation":[
				0,
				1.210719347000122e-07,
				0,
				1
			],
			"translation":[
				-7.450580596923828e-08,
				1.3020210266113281,
				8.940696716308594e-08
			]
		},
		{
			"children":[
				32
			],
			"name":"body 1",
			"rotation":[
				0,
				-9.313225746154785e-10,
				0,
				1
			],
			"scale":[
				1,
				0.9999998807907104,
				1
			],
			"translation":[
				-4.470348358154297e-08,
				5.170370578765869,
				5.960464477539063e-08
			]
		},
		{
			"name":"foot l 2",
			"rotation":[
				0.5927175283432007,
				0.015222366899251938,
				0.4608454704284668,
				0.6603602766990662
			],
			"scale":[
				1.0000001192092896,
				1.0000001192092896,
				1.0000001192092896
			],
			"translation":[
				-0.11154592037200928,
				-0.8497766852378845,
				0.046115994453430176
			]
		},
		{
			"children":[
				34
			],
			"name":"foot l 1",
			"rotation":[
				-0.6084673404693604,
				-0.04008125141263008,
				0.23173974454402924,
				0.7579298615455627
			],
			"scale":[
				1,
				1,
				0.9999999403953552
			],
			"translation":[
				1.059139609336853,
				-0.47822505235671997,
				-0.14781241118907928
			]
		},
		{
			"children":[
				35
			],
			"name":"leg l 2",
			"rotation":[
				2.054358461123229e-09,
				3.3739877380867256e-07,
				1.215830707224086e-07,
				1
			],
			"scale":[
				1,
				0.9999999403953552,
				1
			],
			"translation":[
				1.3475009202957153,
				-0.5183900594711304,
				-1.0041325140264235e-06
			]
		},
		{
			"children":[
				36
			],
			"name":"leg l 1",
			"rotation":[
				-1.2452730402401357e-07,
				-1.469629324901689e-07,
				-0.4989998936653137,
				0.8666020631790161
			],
			"scale":[
				0.9999999403953552,
				1,
				1
			],
			"translation":[
				0.7067141532897949,
				4.632969856262207,
				-2.8312206268310547e-07
			]
		},
		{
			"name":"foot r 2",
			"rotation":[
				0.5841823816299438,
				0.030451269820332527,
				0.4711817800998688,
				0.6601450443267822
			],
			"scale":[
				1,
				0.9999999403953552,
				1
			],
			"translation":[
				-0.04028363525867462,
				-0.8563600778579712,
				0.08087144792079926
			]
		},
		{
			"children":[
				38
			],
			"name":"foot r 1",
			"rotation":[
				-0.34099817276000977,
				0.4938808083534241,
				-0.554667592048645,
				0.576321005821228
			],
			"scale":[
				1.0000001192092896,
				0.9999999403953552,
				1
			],
			"translation":[
				-1.0591387748718262,
				-0.47822779417037964,
				-0.14781229197978973
			]
		},
		{
			"children":[
				39
			],
			"name":"leg r 2",
			"rotation":[
				-7.226211296007534e-10,
				-2.1412715511814895e-07,
				-1.4754188271126623e-07,
				1
			],
			"scale":[
				0.9999999403953552,
				0.9999999403953552,
				0.9999999403953552
			],
			"translation":[
				-1.3474998474121094,
				-0.5183913707733154,
				-1.9091446290531167e-07
			]
		},
		{
			"children":[
				40
			],
			"name":"leg r 1",
			"rotation":[
				3.727444131129687e-09,
				-7.227244225305185e-08,
				0.4989998936653137,
				0.8666020631790161
			],
			"scale":[
				0.9999999403953552,
				1,
				1
			],
			"translation":[
				-0.6375892162322998,
				4.582284450531006,
				-4.172325134277344e-07
			]
		},
		{
			"children":[
				33,
				37,
				41
			],
			"name":"main",
			"rotation":[
				0,
				-0.9999675154685974,
				0,
				0.008059371262788773
			],
			"scale":[
				1,
				0.9999999403953552,
				1
			],
			"translation":[
				3.6106121115153655e-07,
				-1.4978810548782349,
				-3.5972993828181643e-07
			]
		},
		{
			"name":"flag y-",
			"scale":[
				1,
				0.9999999403953552,
				1
			],
			"translation":[
				-0.34169256687164307,
				1.3352662324905396,
				-0.7617221474647522
			]
		},
		{
			"name":"flag x-",
			"rotation":[
				0,
				-9.313225746154785e-10,
				0,
				1
			],
			"scale":[
				1,
				0.9999998807907104,
				1
			],
			"translation":[
				1.8192211389541626,
				1.2226533889770508,
				0.9303438663482666
			]
		},
		{
			"name":"flag mid",
			"scale":[
				1,
				0.9999999403953552,
				1
			],
			"translation":[
				0.14477798342704773,
				1.3030911684036255,
				0.99988853931427
			]
		},
		{
			"children":[
				43,
				44,
				45
			],
			"name":"table",
			"rotation":[
				0,
				-0.9999675154685974,
				0,
				0.008059371262788773
			],
			"scale":[
				1,
				0.9999999403953552,
				1
			],
			"translation":[
				-5.260103225708008,
				0.07525761425495148,
				4.784997463226318
			]
		},
		{
			"mesh":0,
			"name":"intj",
			"skin":0
		},
		{
			"mesh":1,
			"name":"intj coffee table",
			"skin":0
		},
		{
			"mesh":2,
			"name":"intj face",
			"skin":0
		},
		{
			"children":[
				47,
				48,
				49,
				42,
				46
			],
			"name":"intj skeleton",
			"rotation":[
				0,
				1,
				0,
				7.549790126404332e-08
			],
			"translation":[
				-15.014183044433594,
				-2.288818359375e-05,
				-15.02299976348877
			]
		}
	],
	"materials":[
		{
			"doubleSided":true,
			"name":"medium skin",
			"pbrMetallicRoughness":{
				"baseColorTexture":{
					"index":0
				},
				"metallicFactor":0,
				"roughnessFactor":0.5
			}
		},
		{
			"doubleSided":true,
			"name":"NT objects",
			"pbrMetallicRoughness":{
				"baseColorTexture":{
					"index":1
				},
				"metallicFactor":0,
				"roughnessFactor":0.5
			}
		}
	],
	"meshes":[
		{
			"name":"intj",
			"primitives":[
				{
					"attributes":{
						"POSITION":0,
						"NORMAL":1,
						"TEXCOORD_0":2,
						"JOINTS_0":3,
						"WEIGHTS_0":4
					},
					"indices":5,
					"material":0
				},
				{
					"attributes":{
						"POSITION":6,
						"NORMAL":7,
						"TEXCOORD_0":8,
						"JOINTS_0":9,
						"WEIGHTS_0":10
					},
					"indices":11,
					"material":1
				}
			]
		},
		{
			"name":"intj coffee table",
			"primitives":[
				{
					"attributes":{
						"POSITION":13,
						"NORMAL":14,
						"TEXCOORD_0":15,
						"JOINTS_0":16,
						"WEIGHTS_0":17
					},
					"indices":18,
					"material":1
				}
			]
		},
		{
			"extras":{
				"targetNames":[
					"teeth",
					"eye closed"
				]
			},
			"name":"intj face",
			"primitives":[
				{
					"attributes":{
						"POSITION":19,
						"NORMAL":20,
						"TEXCOORD_0":21,
						"JOINTS_0":22,
						"WEIGHTS_0":23
					},
					"indices":24,
					"material":1,
					"targets":[
						{
							"POSITION":25,
							"NORMAL":26
						},
						{
							"POSITION":27,
							"NORMAL":28
						}
					]
				}
			],
			"weights":[
				0,
				0
			]
		}
	],
	"textures":[
		{
			"sampler":0,
			"source":0
		},
		{
			"sampler":0,
			"source":1
		}
	],
	"images":[
		{
			"mimeType":"image/png",
			"name":"m nan",
			"uri":"m%20nan.png"
		},
		{
			"mimeType":"image/png",
			"name":"nt",
			"uri":"nt.png"
		}
	],
	"skins":[
		{
			"inverseBindMatrices":12,
			"joints":[
				42,
				33,
				32,
				11,
				10,
				0,
				1,
				2,
				4,
				3,
				5,
				6,
				7,
				8,
				9,
				21,
				19,
				18,
				13,
				12,
				15,
				14,
				17,
				16,
				20,
				31,
				29,
				28,
				23,
				22,
				25,
				24,
				27,
				26,
				30,
				37,
				36,
				35,
				34,
				41,
				40,
				39,
				38,
				46,
				43,
				44,
				45
			],
			"name":"intj skeleton"
		}
	],
	"accessors":[
		{
			"bufferView":0,
			"componentType":5126,
			"count":662,
			"max":[
				-9.782173156738281,
				9.713472366333008,
				-13.052833557128906
			],
			"min":[
				-20.246192932128906,
				4.136018753051758,
				-16.063138961791992
			],
			"type":"VEC3"
		},
		{
			"bufferView":1,
			"componentType":5126,
			"count":662,
			"type":"VEC3"
		},
		{
			"bufferView":2,
			"componentType":5126,
			"count":662,
			"type":"VEC2"
		},
		{
			"bufferView":3,
			"componentType":5121,
			"count":662,
			"type":"VEC4"
		},
		{
			"bufferView":4,
			"componentType":5126,
			"count":662,
			"type":"VEC4"
		},
		{
			"bufferView":5,
			"componentType":5123,
			"count":1002,
			"type":"SCALAR"
		},
		{
			"bufferView":6,
			"componentType":5126,
			"count":988,
			"max":[
				-10.921553611755371,
				10.331884384155273,
				-13.129127502441406
			],
			"min":[
				-19.106813430786133,
				0.0008153915405273438,
				-17.15869140625
			],
			"type":"VEC3"
		},
		{
			"bufferView":7,
			"componentType":5126,
			"count":988,
			"type":"VEC3"
		},
		{
			"bufferView":8,
			"componentType":5126,
			"count":988,
			"type":"VEC2"
		},
		{
			"bufferView":9,
			"componentType":5121,
			"count":988,
			"type":"VEC4"
		},
		{
			"bufferView":10,
			"componentType":5126,
			"count":988,
			"type":"VEC4"
		},
		{
			"bufferView":11,
			"componentType":5123,
			"count":1440,
			"type":"SCALAR"
		},
		{
			"bufferView":12,
			"componentType":5126,
			"count":47,
			"type":"MAT4"
		},
		{
			"bufferView":13,
			"componentType":5126,
			"count":377,
			"max":[
				-5.9277424812316895,
				2.2529988288879395,
				-15.750704765319824
			],
			"min":[
				-13.524877548217773,
				-0.0047460636124014854,
				-23.83737564086914
			],
			"type":"VEC3"
		},
		{
			"bufferView":14,
			"componentType":5126,
			"count":377,
			"type":"VEC3"
		},
		{
			"bufferView":15,
			"componentType":5126,
			"count":377,
			"type":"VEC2"
		},
		{
			"bufferView":16,
			"componentType":5121,
			"count":377,
			"type":"VEC4"
		},
		{
			"bufferView":17,
			"componentType":5126,
			"count":377,
			"type":"VEC4"
		},
		{
			"bufferView":18,
			"componentType":5123,
			"count":495,
			"type":"SCALAR"
		},
		{
			"bufferView":19,
			"componentType":5126,
			"count":54,
			"max":[
				-14.46043872833252,
				8.080623626708984,
				-13.273599624633789
			],
			"min":[
				-15.567927360534668,
				6.796377658843994,
				-13.371357917785645
			],
			"type":"VEC3"
		},
		{
			"bufferView":20,
			"componentType":5126,
			"count":54,
			"type":"VEC3"
		},
		{
			"bufferView":21,
			"componentType":5126,
			"count":54,
			"type":"VEC2"
		},
		{
			"bufferView":22,
			"componentType":5121,
			"count":54,
			"type":"VEC4"
		},
		{
			"bufferView":23,
			"componentType":5126,
			"count":54,
			"type":"VEC4"
		},
		{
			"bufferView":24,
			"componentType":5123,
			"count":114,
			"type":"SCALAR"
		},
		{
			"componentType":5126,
			"count":54,
			"max":[
				0,
				0,
				0.0067691802978515625
			],
			"min":[
				0,
				-0.3413224220275879,
				-0.0067691802978515625
			],
			"sparse":{
				"count":6,
				"indices":{
					"bufferView":25,
					"componentType":5121
				},
				"values":{
					"bufferView":26
				}
			},
			"type":"VEC3"
		},
		{
			"bufferView":27,
			"componentType":5126,
			"count":54,
			"type":"VEC3"
		},
		{
			"bufferView":28,
			"componentType":5126,
			"count":54,
			"max":[
				0.044425010681152344,
				0.08141422271728516,
				0.0036687850952148438
			],
			"min":[
				-0.04814910888671875,
				-0.07880210876464844,
				-0.0034341812133789062
			],
			"type":"VEC3"
		},
		{
			"bufferView":29,
			"componentType":5126,
			"count":54,
			"type":"VEC3"
		}
	],
	"bufferViews":[
		{
			"buffer":0,
			"byteLength":7944,
			"byteOffset":0,
			"target":34962
		},
		{
			"buffer":0,
			"byteLength":7944,
			"byteOffset":7944,
			"target":34962
		},
		{
			"buffer":0,
			"byteLength":5296,
			"byteOffset":15888,
			"target":34962
		},
		{
			"buffer":0,
			"byteLength":2648,
			"byteOffset":21184,
			"target":34962
		},
		{
			"buffer":0,
			"byteLength":10592,
			"byteOffset":23832,
			"target":34962
		},
		{
			"buffer":0,
			"byteLength":2004,
			"byteOffset":34424,
			"target":34963
		},
		{
			"buffer":0,
			"byteLength":11856,
			"byteOffset":36428,
			"target":34962
		},
		{
			"buffer":0,
			"byteLength":11856,
			"byteOffset":48284,
			"target":34962
		},
		{
			"buffer":0,
			"byteLength":7904,
			"byteOffset":60140,
			"target":34962
		},
		{
			"buffer":0,
			"byteLength":3952,
			"byteOffset":68044,
			"target":34962
		},
		{
			"buffer":0,
			"byteLength":15808,
			"byteOffset":71996,
			"target":34962
		},
		{
			"buffer":0,
			"byteLength":2880,
			"byteOffset":87804,
			"target":34963
		},
		{
			"buffer":0,
			"byteLength":3008,
			"byteOffset":90684
		},
		{
			"buffer":0,
			"byteLength":4524,
			"byteOffset":93692,
			"target":34962
		},
		{
			"buffer":0,
			"byteLength":4524,
			"byteOffset":98216,
			"target":34962
		},
		{
			"buffer":0,
			"byteLength":3016,
			"byteOffset":102740,
			"target":34962
		},
		{
			"buffer":0,
			"byteLength":1508,
			"byteOffset":105756,
			"target":34962
		},
		{
			"buffer":0,
			"byteLength":6032,
			"byteOffset":107264,
			"target":34962
		},
		{
			"buffer":0,
			"byteLength":990,
			"byteOffset":113296,
			"target":34963
		},
		{
			"buffer":0,
			"byteLength":648,
			"byteOffset":114288,
			"target":34962
		},
		{
			"buffer":0,
			"byteLength":648,
			"byteOffset":114936,
			"target":34962
		},
		{
			"buffer":0,
			"byteLength":432,
			"byteOffset":115584,
			"target":34962
		},
		{
			"buffer":0,
			"byteLength":216,
			"byteOffset":116016,
			"target":34962
		},
		{
			"buffer":0,
			"byteLength":864,
			"byteOffset":116232,
			"target":34962
		},
		{
			"buffer":0,
			"byteLength":228,
			"byteOffset":117096,
			"target":34963
		},
		{
			"buffer":0,
			"byteLength":6,
			"byteOffset":117324
		},
		{
			"buffer":0,
			"byteLength":72,
			"byteOffset":117332
		},
		{
			"buffer":0,
			"byteLength":648,
			"byteOffset":117404,
			"target":34962
		},
		{
			"buffer":0,
			"byteLength":648,
			"byteOffset":118052,
			"target":34962
		},
		{
			"buffer":0,
			"byteLength":648,
			"byteOffset":118700,
			"target":34962
		}
	],
	"samplers":[
		{
			"magFilter":9729,
			"minFilter":9987
		}
	],
	"buffers":[
		{
			"byteLength":119348,
			"uri":"intj.bin"
		}
	]
}
